<?xml version="1.0" encoding="UTF-8"?>
<svg width="1000px" height="500px" viewBox="0 0 1000 500" version="1.1" xmlns="http://www.w3.org/2000/svg" xmlns:xlink="http://www.w3.org/1999/xlink">
    <title>Artboard</title>
    <defs>
        <path d="M237,174 C233,186 226,192 212,192 C208,204 202,210 186,210 C190,210 194,205 194,201 C194,197 190,192 186,192 L186,192 L166,192 C156,192 146,203 146,213 C146,223 155,234 166,234 L166,234 L182,234 L134,282 L86,234 L86,234 L102,234 C113,234 122,223 122,213 C122,203 112,192 102,192 L102,192 L82,192 C78,192 74,197 74,201 C74,205 78,210 82,210 C66,210 60,204 56,192 C40,192 35,186 31,174 L31,174 Z M128,72 L128,108 L128,108 C128,120 116,132 104,132 C98,132 93,130.333333 89,127 C85,130.333333 80,132 74,132 C68,132 63,130.333333 59,127 C55.6666667,130.333333 51,132 45,132 L24.024607,132 L24.024607,132 C21,132 19,135 19,138 C19,141 21.0492141,144 24.024607,144 L272,144 L272,144 L254,162 L24.024607,162 L24.024607,162 C12,162 -8.52651283e-14,150 -8.52651283e-14,138 C-8.52651283e-14,126 12,114 24.024607,114 L44,114 L44,114 C47,114 50,111 50,108 L50,102 L50,102 L68,84 L68,108 L68,108 C68,111 71,114 74,114 C77,114 80,111 80,108 L80,102 L80,102 L98,84 L98,108 L98,108 C98,111 101,114 104,114 C107,114 110,111 110,108 L110,90 L110,90 L128,72 Z M140,0 L158,18 L158,18 L158,108 C158,111 159,114 163,114 L163,114 L229,114 L229,114 L221.112699,106.112803 C218.578917,103.582548 216.872933,102 212.552663,102 L212.552663,102 L194,102 C182,102 171,91 171,79 L171,79 L171,30 L189,48 L189,48 L189,79 C189,82 191,84 194,84 L194,84 L215.276229,84.0007332 C221.154642,84.0325118 226.128652,85.1286521 234.362387,93.362387 L234.362387,93.362387 L273,132 L273,132 L163,132 C151,132 140,120 140,108 L140,108 L140,0 Z" id="path-1"></path>
    </defs>
    <g id="Artboard" stroke="none" stroke-width="1" fill="none" fill-rule="evenodd">
        <g id="lines-bounded" opacity="0.25" transform="translate(500.000000, 249.500000) scale(1, -1) translate(-500.000000, -249.500000) translate(0.000000, -73.000000)" stroke="#979797" stroke-linecap="round" stroke-linejoin="round" stroke-width="0.714285714">
            <path d="M1000,384.642857 L936.404207,338.358754 C816.501402,251.095218 663.536325,222.810842 520.357143,261.428571 L491.453295,269.224404 C362.945415,303.885047 226.847282,297.803 101.943362,251.817718 L0,214.285714 L0,214.285714" id="Path-10"></path>
            <path d="M1000,377.5 L933.140458,326.954563 C815.352454,237.907497 663.474344,207.227786 520.357143,243.571429 L494.44002,250.152906 C364.05815,283.262498 226.57465,274.637265 101.35316,225.492014 L0,185.714286 L0,185.714286" id="Path-10-Copy-36"></path>
            <path d="M1000,370.357143 L929.945196,315.419948 C814.218363,224.666606 663.422963,191.64025 520.357143,225.714286 L497.250918,231.217503 C365.107107,262.690241 226.389926,251.494916 101.003616,199.237924 L0,157.142857 L0,157.142857" id="Path-10-Copy-37"></path>
            <path d="M1000,363.214286 L926.821384,303.763111 C813.100825,211.375181 663.382044,176.048766 520.357143,207.857143 L499.87945,212.41133 C366.089449,242.165889 226.2916,228.381697 100.889154,173.070533 L0,128.571429 L0,128.571429" id="Path-10-Copy-38"></path>
            <path d="M1000,356.071429 L923.771451,291.99214 C812.00135,198.035892 663.351402,160.453868 520.357143,190 L502.319892,193.72694 C367.002659,221.68681 226.27772,205.302997 101.003134,147.003889 L0,100 L0,100" id="Path-10-Copy-39"></path>
            <path d="M1000,348.928571 L920.797336,280.114973 C810.921268,184.651422 663.330818,144.856083 520.357143,172.142857 L504.567355,175.156365 C367.844555,201.250149 226.34594,182.263825 101.337973,121.050933 L0,71.4285714 L0,71.4285714" id="Path-10-Copy-40"></path>
            <path d="M1000,341.785714 L917.900524,268.139358 C809.86174,171.224455 663.320031,129.255934 520.357143,154.285714 L506.617801,156.691183 C368.613301,180.852854 226.493553,159.268775 101.885269,95.2234473 L0,42.8571429 L0,42.8571429" id="Path-10-Copy-41"></path>
            <path d="M1000,334.642857 L915.082091,256.072831 C808.823764,157.757651 663.318754,113.65393 520.357143,136.428571 L508.468047,138.322576 C369.307415,160.491698 226.717542,136.32201 102.635919,69.5320231 L0,14.2857143 L0,14.2857143" id="Path-10-Copy-42"></path>
            <path d="M1000,327.5 L912.342734,243.922691 C807.808186,144.253644 663.326668,98.0505662 520.357143,118.571429 L510.115765,120.041406 C369.925769,140.163313 227.014621,113.42725 103.580247,43.9860408 L27.5455069,1.21072523 L27.5455069,1.21072523" id="Path-10-Copy-43"></path>
            <path d="M1000,320.357143 L909.682815,231.695985 C806.81571,130.715019 663.34343,82.4463215 520.357143,100.714286 L511.559471,101.838278 C370.467589,119.864213 227.381276,90.5877614 104.708115,18.5936705 L74.8740104,1.08471255 L74.8740104,1.08471255" id="Path-10-Copy-44"></path>
            <path d="M1000,313.214286 L907.102391,219.399493 C805.846908,117.144308 663.36868,66.8416553 520.357143,82.8571429 L512.798517,83.7036136 C375.854666,99.0395969 237.74365,69.9545708 118.763556,0.956429772" id="Path-10-Copy-45"></path>
            <path d="M1000,306.071429 L904.601248,207.039719 C804.902229,103.543982 663.402037,51.2370054 520.357143,65 L513.833063,65.6277112 C393.647161,77.191339 273.10629,54.6410177 165.81061,1.23424732" id="Path-10-Copy-46"></path>
            <path d="M1000,298.928571 L902.17893,194.622889 C803.982009,89.91644 663.44311,35.6327873 520.357143,47.1428571 L514.664055,47.6008184 C412.690601,55.8037304 310.850563,39.5148649 217.381987,0.850696669" id="Path-10-Copy-47"></path>
            <path d="M1000,291.785714 L899.834769,182.15494 C803.086479,76.2640047 663.491494,20.0293919 520.357143,29.2857143 L515.293195,29.6131936 C435.565534,34.7690833 356.155753,24.9906073 280.970444,1.3492462" id="Path-10-Copy-48"></path>
            <path d="M1000,284.642857 L897.567912,169.641529 C802.215776,62.5889188 663.546778,4.42718546 520.357143,11.4285714 L515.722901,11.6551669 C464.463568,14.161538 413.432809,10.5084746 363.661323,0.996533044" id="Path-10-Copy-49"></path>
            <path d="M1000,277.5 L895.377341,157.088026 C823.68401,74.5749676 726.542814,20.0536561 620.926051,0.924365935" id="Path-10-Copy-50"></path>
            <path d="M1000,270.357143 L893.261898,144.499522 C836.889308,78.0291619 764.190672,29.0711808 683.64361,1.46274419" id="Path-10-Copy-51"></path>
            <path d="M1000,263.214286 L891.220305,131.880832 C844.37744,75.3258358 785.854197,30.9964064 720.639812,1.23369159" id="Path-10-Copy-52"></path>
            <path d="M1000,256.071429 L889.251182,119.2365 C849.964352,70.6959316 802.176284,30.842781 748.901068,1.14151966" id="Path-10-Copy-53"></path>
            <path d="M1000,248.928571 L887.353064,106.570808 C854.315323,64.8193041 815.065476,29.269055 771.436026,0.840955929" id="Path-10-Copy-54"></path>
            <path d="M1000,241.785714 L885.524414,93.8877779 C858.050853,58.3930228 826.144189,27.2234504 790.880033,0.937539836" id="Path-10-Copy-55"></path>
            <path d="M1000,234.642857 L883.763638,81.1911866 C860.934905,51.0533946 834.951539,23.9252378 806.442415,0.143752364" id="Path-10-Copy-56"></path>
            <path d="M1000,227.5 L882.069099,68.4845686 C863.904979,43.992468 843.685039,21.4191302 821.731601,0.942697892" id="Path-10-Copy-57"></path>
            <path d="M1000,220.357143 L880.439125,55.7712271 C866.35485,36.3830009 850.999776,18.155628 834.526559,1.17604161" id="Path-10-Copy-58"></path>
            <path d="M1000,213.214286 L878.872017,43.0542425 C868.475651,28.4494744 857.368205,14.4807221 845.61196,1.18450175" id="Path-10-Copy-59"></path>
            <path d="M1000,206.071429 L877.366065,30.3364808 C870.330607,20.2546402 862.961109,10.4654667 855.27712,0.980752786" id="Path-10-Copy-60"></path>
            <path d="M1000,198.928571 L875.919547,17.6206033 C872.127264,12.0792705 868.235532,6.6233205 864.247447,1.25467369" id="Path-10-Copy-61"></path>
            <path d="M1000,191.785714 L874.530741,4.90907489 C873.685175,3.6496698 872.834547,2.39452409 871.978894,1.14365987" id="Path-10-Copy-62"></path>
            <path d="M1000,184.642857 C946.214245,103.015956 905.874928,41.7957804 878.98205,0.98232986" id="Path-10-Copy-63"></path>
            <path d="M1000,177.5 C949.140792,98.879842 910.996386,39.9147234 885.566782,0.604644399" id="Path-10-Copy-64"></path>
            <path d="M1000,170.357143 C952.229336,95.1638276 916.401339,38.7688412 892.516007,1.17218362" id="Path-10-Copy-65"></path>
            <path d="M1000,163.214286 C955.065614,91.2178652 921.364825,37.2205497 898.897632,1.22233947" id="Path-10-Copy-66"></path>
            <path d="M1000,156.071429 C957.750513,87.1851006 926.063398,35.5203546 904.938655,1.07719063" id="Path-10-Copy-67"></path>
            <path d="M1000,148.928571 C960.456967,83.339563 930.799692,34.1478066 911.028175,1.35330239" id="Path-10-Copy-68"></path>
            <path d="M1000,141.785714 C962.996485,79.3651172 935.24385,32.5496693 916.742092,1.33937077" id="Path-10-Copy-69"></path>
            <path d="M1000,134.642857 C965.319409,75.1624647 939.308966,30.5521703 921.968671,0.811974035" id="Path-10-Copy-70"></path>
            <path d="M1000,127.5 C967.836825,71.4299232 943.714444,29.3773657 927.632856,1.34232731" id="Path-10-Copy-71"></path>
            <path d="M1000,120.357143 C970.039763,67.2823089 947.569586,27.4761835 932.589468,0.938766563" id="Path-10-Copy-72"></path>
            <path d="M1000,113.214286 C972.294393,63.3520089 951.515188,25.9553013 937.662385,1.02416283" id="Path-10-Copy-73"></path>
            <path d="M1000,106.071429 C974.558807,59.566794 955.477913,24.688318 942.757316,1.43600071" id="Path-10-Copy-74"></path>
            <path d="M1000,98.9285714 C976.570845,55.4408867 958.998978,22.8251232 947.2844,1.0812808" id="Path-10-Copy-75"></path>
            <path d="M1000,91.7857143 C978.589054,51.440123 962.530844,21.1809296 951.825371,1.00813397" id="Path-10-Copy-76"></path>
            <path d="M1000,84.6428571 C980.583623,47.5080087 966.02134,19.6568724 956.313151,1.08944816" id="Path-10-Copy-77"></path>
            <path d="M1000,77.5 C982.506103,43.5485157 969.38568,18.0849025 960.638732,1.1091604" id="Path-10-Copy-78"></path>
            <path d="M1000,391.785714 L939.732909,349.624252 C817.663317,264.227189 663.608996,238.388892 520.357143,279.285714 L488.298066,288.438227 C361.772046,324.560009 227.20886,320.98607 102.778624,278.199003 L0,242.857143 L0,242.857143" id="Path-10-Copy"></path>
            <path d="M1000,398.928571 L943.12242,360.742777 C818.83611,277.30091 663.692397,253.961416 520.357143,297.142857 L484.982403,307.799916 C360.541467,345.28922 227.659916,344.18016 103.86206,304.618999 L0,271.428571 L0,271.428571" id="Path-10-Copy-2"></path>
            <path d="M1000,406.071429 L946.567946,371.706102 C820.017488,290.313988 663.786512,269.527913 520.357143,315 L481.515081,327.314281 C359.257362,366.074221 228.200446,367.378747 105.195403,331.060125 L0,300 L0,300" id="Path-10-Copy-3"></path>
            <path d="M1000,413.214286 L950.064014,382.506119 C821.204956,303.26416 663.891266,285.0879 520.357143,332.857143 L477.905524,346.985363 C357.923647,386.91624 228.829897,390.575155 106.778923,357.504235 L0,328.571429 L0,328.571429" id="Path-10-Copy-4"></path>
            <path d="M1000,420.357143 L953.604442,393.134926 C822.395815,316.149328 664.006523,300.640921 520.357143,350.714286 L474.163745,366.816401 C356.544437,407.816191 229.547144,413.762627 108.611356,383.932779 L0,357.142857 L0,357.142857" id="Path-10-Copy-5"></path>
            <path d="M1000,427.5 L957.182318,403.584905 C823.587167,328.967586 664.132083,316.186553 520.357143,368.571429 L470.300283,386.809811 C355.124018,428.774665 230.350492,436.934383 110.689859,410.326976 L0,385.714286 L0,385.714286" id="Path-10-Copy-6"></path>
            <path d="M1000,434.642857 L960.789981,413.848827 C824.775923,341.717253 664.26768,331.724408 520.357143,386.428571 L466.326129,406.967174 C353.666809,449.791932 231.237672,460.083698 113.009978,436.668006 L0,414.285714 L0,414.285714" id="Path-10-Copy-7"></path>
            <path d="M1000,441.785714 L964.419023,423.919949 C825.958808,354.396907 664.412981,347.254144 520.357143,404.285714 L462.252649,427.289228 C352.177331,470.867943 232.205857,483.203968 115.565649,462.937201 L0,442.857143 L0,442.857143" id="Path-10-Copy-8"></path>
            <path d="M1000,448.928571 L968.060288,433.792121 C827.132385,367.005414 664.567583,362.775468 520.357143,422.142857 L458.091502,447.775873 C350.660167,492.002338 233.251675,506.288785 118.349214,489.116243 L0,471.428571 L0,471.428571" id="Path-10-Copy-9"></path>
            <path d="M1000,456.071429 L971.703895,443.459906 C828.293065,379.541962 664.731019,378.288138 520.357143,440 L453.854558,468.426184 C349.119928,513.194456 234.371242,529.332002 121.351465,515.187364 L0,500 L0,500" id="Path-10-Copy-10"></path>
            <path d="M1000,463.214286 L975.339269,452.918691 C829.437132,392.006092 664.902751,393.791976 520.357143,457.857143 L449.553809,489.238431 C347.561215,534.443351 235.560197,552.327803 124.561716,541.133546 L0,528.571429 L0,528.571429" id="Path-10-Copy-11"></path>
            <path d="M1000,470.357143 L978.955191,462.164805 C830.560772,404.397726 665.08218,409.286863 520.357143,475.714286 L445.201287,510.210112 C345.988587,555.747803 236.813743,575.270762 127.967898,566.938699 L0,557.142857 L0,557.142857" id="Path-10-Copy-12"></path>
            <path d="M1000,477.5 L982.539861,471.195634 C831.660105,416.717189 665.268646,424.77275 520.357143,493.571429 L440.808971,531.33799 C344.406525,577.106344 238.126701,598.155899 131.556674,592.587842 L0,585.714286 L0,585.714286" id="Path-10-Copy-13"></path>
            <path d="M1000,484.642857 L986.080983,480.009729 C832.731213,428.965236 665.46143,440.249655 520.357143,511.428571 L436.388707,552.618136 C342.8194,598.517275 239.493564,620.97873 135.313579,618.06726 L0,614.285714 L0,614.285714" id="Path-10-Copy-14"></path>
            <path d="M1000,491.785714 L989.565865,488.606909 C833.770189,441.143064 665.659764,455.717668 520.357143,529.285714 L431.952125,574.045984 C341.231448,619.978692 240.908561,643.735303 139.223176,643.364639 L0,642.857143 L0,642.857143" id="Path-10-Copy-15"></path>
            <path d="M1000,498.928571 L992.981535,496.988347 C834.773173,453.252326 665.862836,471.176951 520.357143,547.142857 L427.510562,595.616387 C388.499338,615.983446 347.631675,632.222859 305.572925,644.164091" id="Path-10-Copy-16"></path>
            <path d="M1000,506.071429 L996.314876,505.156645 C835.736396,465.295132 666.069795,486.627738 520.357143,565 L423.074991,617.323681 C404.604289,627.258238 385.699013,636.261334 366.430879,644.313182" id="Path-10-Copy-17"></path>
            <path d="M1000,513.214286 L999.552771,513.115883 C836.656229,477.274048 666.279764,502.070329 520.357143,582.857143 L418.655952,639.161745 C415.401135,640.963702 412.132244,642.736542 408.849676,644.480147" id="Path-10-Copy-18"></path>
            <path d="M1000,520.357143 C836.578069,489.009636 667.333473,517.025871 522.73053,599.362878 C487.812275,619.245354 461.623584,634.157211 444.164457,644.098449" id="Path-10-Copy-19"></path>
            <path d="M1000,527.5 L998.217464,527.208358 C835.709122,500.620251 669.016653,531.579822 526.892983,614.746828 C504.327448,627.951581 487.403297,637.855146 476.120529,644.457523" id="Path-10-Copy-20"></path>
            <path d="M1000,534.642857 L992.971846,533.691231 C833.621684,512.114905 671.676388,545.49382 533.845447,628.322824 C522.180724,635.332697 513.432182,640.590102 507.59982,644.095038" id="Path-10-Copy-21"></path>
            <path d="M1000,541.785714 L987.38749,540.433739 C831.425606,523.715681 674.331687,559.32665 540.824113,641.66334 C539.068354,642.74615 537.751535,643.558258 536.873655,644.099663" id="Path-10-Copy-22"></path>
            <path d="M1000,548.928571 L981.489552,547.466533 C835.705711,535.951872 690.106539,569.926465 564.657099,644.450027" id="Path-10-Copy-23"></path>
            <path d="M1000,556.071429 L975.305751,554.81756 C841.924287,548.045017 709.6748,579.191314 593.708331,644.190054" id="Path-10-Copy-24"></path>
            <path d="M1000,563.214286 L968.866014,562.511685 C848.226226,559.789208 729.309915,587.984924 623.246871,643.876609" id="Path-10-Copy-25"></path>
            <path d="M1000,570.357143 L962.202071,570.570389 C853.966685,571.181026 747.760419,596.619484 651.578574,644.400742" id="Path-10-Copy-26"></path>
        </g>
        <g id="kaashi-logo" transform="translate(308.000000, 58.000000)">
            <g id="body" transform="translate(58.000000, 54.000000)">
                <mask id="mask-2" fill="white">
                    <use xlink:href="#path-1"></use>
                </mask>
                <use id="Mask" fill="#000000" xlink:href="#path-1"></use>
                <g id="color-mask" mask="url(#mask-2)">
                    <g transform="translate(-11.000000, -7.000000)">
                        <polygon id="colormask-top" fill="#00BCD4" style="mix-blend-mode: lighten;" points="145 145 290 1 1 1"></polygon>
                        <polygon id="colormask-right" fill="#01A9F4" style="mix-blend-mode: lighten;" transform="translate(217.000000, 145.500000) rotate(90.000000) translate(-217.000000, -145.500000) " points="216.5 217.5 361.5 73.5 72.5 73.5"></polygon>
                        <polygon id="color-mask-left" fill="#2196F3" style="mix-blend-mode: lighten;" transform="translate(73.000000, 144.500000) rotate(-90.000000) translate(-73.000000, -144.500000) " points="72.5 216.5 217.5 72.5 -71.5 72.5"></polygon>
                        <polygon id="colormask-bottom" fill="#3F51B5" style="mix-blend-mode: lighten;" transform="translate(144.500000, 217.000000) rotate(180.000000) translate(-144.500000, -217.000000) " points="144 289 289 145 0 145"></polygon>
                    </g>
                </g>
            </g>
            <path d="M167.727922,107 L180.455844,119.727922 L167.727922,132.455844 L155,119.727922 L167.727922,107 Z M131.727922,107 L144.455844,119.727922 L131.727922,132.455844 L119,119.727922 L131.727922,107 Z M149.727922,89 L162.455844,101.727922 L149.727922,114.455844 L137,101.727922 L149.727922,89 Z" id="dots" fill="#FF5656"></path>
            <rect id="frame" stroke-opacity="0.01" stroke="#979797" stroke-width="0.01" x="0.005" y="0.005" width="383.99" height="383.99"></rect>
        </g>
    </g>
</svg>