<?xml version="1.0" encoding="UTF-8"?>
<svg width="384px" height="384px" viewBox="0 0 384 384" version="1.1" xmlns="http://www.w3.org/2000/svg" xmlns:xlink="http://www.w3.org/1999/xlink">
    <!-- Generator: Sketch 46 (44423) - http://www.bohemiancoding.com/sketch -->
    <title>kaashi-logo</title>
    <desc>Created with Sketch.</desc>
    <defs>
        <path d="M273,132 C207.666667,132 171,132 163,132 C151,132 140,120 140,108 C140,100 140,64 140,0 L158,18 C158,76 158,106 158,108 C158,111 159,114 163,114 C165.666667,114 187.666667,114 229,114 C225.666667,110.666667 223.112835,108.112835 221.338504,106.338504 C218.677008,103.677008 217,102 212.552663,102 C204.998915,102 200.148028,102 194,102 C182,102 171,91 171,79 C171,71 171,54.6666667 171,30 L189,48 C189,66.6666667 189,77 189,79 C189,82 191,84 194,84 C197,84 209,84 215,84 C221,84 226,85 234.362387,93.362387 C239.937312,98.9373117 252.816516,111.816516 273,132 Z M110,90 L128,72 C128,88 128,100 128,108 C128,120 116,132 104,132 C98,132 93,130.333333 89,127 C85,130.333333 80,132 74,132 C68,132 63,130.333333 59,127 C55.6666667,130.333333 51,132 45,132 C38.5026259,132 27.0492141,132 24.024607,132 C21,132 19,135 19,138 C19,141 21.0492141,144 24.024607,144 C26.0082023,144 108.666667,144 272,144 L254,162 C108.699476,162 32.0410117,162 24.024607,162 C12,162 -8.149037e-14,150 -8.52651283e-14,138 C-8.52651283e-14,126 12,114 24.024607,114 C36.0492141,114 42.699264,114 44,114 C47,114 50,111 50,108 C50,106 50,104 50,102 L68,84 C68,98 68,106 68,108 C68,111 71,114 74,114 C77,114 80,111 80,108 C80,106 80,104 80,102 L98,84 C98,98 98,106 98,108 C98,111 101,114 104,114 C107,114 110,111 110,108 C110,106 110,100 110,90 Z M237,174 C233,186 226,192 212,192 C208,204 202,210 186,210 C190,210 194,205 194,201 C194,197 190,192 186,192 C182,192 176,192 166,192 C156,192 146,203 146,213 C146,223 155,234 166,234 C173.333333,234 178.666667,234 182,234 L134,282 L86,234 C89.3333333,234 94.6666667,234 102,234 C113,234 122,223 122,213 C122,203 112,192 102,192 C92,192 86,192 82,192 C78,192 74,197 74,201 C74,205 78,210 82,210 C66,210 60,204 56,192 C40,192 35,186 31,174 L237,174 Z" id="path-1"></path>
    </defs>
    <g id="Page-1" stroke="none" stroke-width="1" fill="none" fill-rule="evenodd">
        <g id="Artboard" transform="translate(-168.000000, -168.000000)">
            <g id="kaashi-logo" transform="translate(168.000000, 168.000000)">
                <g id="body" transform="translate(58.000000, 54.000000)">
                    <mask id="mask-2" fill="white">
                        <use xlink:href="#path-1"></use>
                    </mask>
                    <use id="Mask" fill="#000000" xlink:href="#path-1"></use>
                    <g id="color-mask" mask="url(#mask-2)">
                        <g transform="translate(-11.000000, -7.000000)">
                            <polygon id="colormask-top" fill="#00BCD4" style="mix-blend-mode: lighten;" points="145 145 290 1 1 1"></polygon>
                            <polygon id="colormask-right" fill="#01A9F4" style="mix-blend-mode: lighten;" transform="translate(217.000000, 145.500000) rotate(90.000000) translate(-217.000000, -145.500000) " points="216.5 217.5 361.5 73.5 72.5 73.5"></polygon>
                            <polygon id="color-mask-left" fill="#2196F3" style="mix-blend-mode: lighten;" transform="translate(73.000000, 144.500000) rotate(-90.000000) translate(-73.000000, -144.500000) " points="72.5 216.5 217.5 72.5 -71.5 72.5"></polygon>
                            <polygon id="colormask-bottom" fill="#3F51B5" style="mix-blend-mode: lighten;" transform="translate(144.500000, 217.000000) rotate(180.000000) translate(-144.500000, -217.000000) " points="144 289 289 145 0 145"></polygon>
                        </g>
                    </g>
                </g>
                <path d="M149.727922,89 L162.455844,101.727922 L149.727922,114.455844 L137,101.727922 L149.727922,89 Z M167.727922,107 L180.455844,119.727922 L167.727922,132.455844 L155,119.727922 L167.727922,107 Z M131.727922,107 L144.455844,119.727922 L131.727922,132.455844 L119,119.727922 L131.727922,107 Z" id="dots" fill="#FF5656"></path>
                <rect id="frame" stroke-opacity="0.01" stroke="#979797" stroke-width="0.01" x="0.005" y="0.005" width="383.99" height="383.99"></rect>
            </g>
        </g>
    </g>
</svg>